<svg width="204" height="34" viewBox="0 0 204 34" fill="none" xmlns="http://www.w3.org/2000/svg">
<path d="M18.3012 1.40784H15.4856V7.03898H18.3012V1.40784ZM22.5245 1.40784H19.7089V7.03898H22.5245V1.40784ZM14.0778 1.40784H11.2622V7.03898H14.0778V1.40784ZM15.4856 32.3791H18.3012V26.748H15.4856V32.3791ZM19.7089 32.3791H22.5245V26.748H19.7089V32.3791ZM11.2622 32.3791H14.0778V26.748H11.2622V32.3791ZM26.7479 18.3013H32.379V15.4857H26.7479V18.3013ZM26.7479 22.5246H32.379V19.7091H26.7479V22.5246ZM26.7479 11.2623V14.0779H32.379V11.2623H26.7479ZM1.40771 18.3013H7.03886V15.4857H1.40771V18.3013ZM1.40771 22.5246H7.03886V19.7091H1.40771V22.5246ZM1.40771 14.0779H7.03886V11.2623H1.40771V14.0779ZM9.85444 23.9324H23.9323V9.85456H9.85444V23.9324ZM12.67 12.6701H21.1167V21.1169H12.67V12.6701Z" fill="black"/>
<path d="M53.2503 14.1693C53.2503 15.1852 53.0226 16.0259 52.5672 16.6915C52.1118 17.357 51.5163 17.865 50.7806 18.2153L53.1802 21.8934H49.8874L47.9432 18.7232H41.8129V21.8934H39.0806V9.61539H48.3636C49.1576 9.61539 49.9224 9.76719 50.658 10.0708C51.4053 10.3627 52.0242 10.8531 52.5146 11.542C53.005 12.2193 53.2503 13.095 53.2503 14.1693ZM47.5929 16.2711C48.1767 16.2711 48.6672 16.2361 49.0642 16.166C49.4612 16.096 49.7998 15.9091 50.08 15.6055C50.372 15.2903 50.5179 14.8115 50.5179 14.1693C50.5179 13.5388 50.372 13.0717 50.08 12.7681C49.7881 12.4645 49.4378 12.2718 49.0291 12.1901C48.6321 12.1084 48.1534 12.0675 47.5929 12.0675H41.8129V16.2711H47.5929ZM61.8049 22.0686C60.7072 22.0686 59.6213 21.9168 58.5471 21.6132C57.4845 21.2979 56.5795 20.755 55.8322 19.9843C55.0966 19.202 54.7288 18.1511 54.7288 16.8316C54.7288 15.0801 55.3593 13.7665 56.6204 12.8907C57.8815 12.0033 59.6447 11.5596 61.9099 11.5596C64.1635 11.5596 65.9326 12.0149 67.217 12.9257C68.5014 13.8365 69.1086 15.4012 69.0386 17.6198H57.7414C57.9048 18.4255 58.3486 19.0035 59.0725 19.3538C59.7965 19.7041 60.7715 19.8792 61.9975 19.8792C63.0834 19.8792 63.965 19.7508 64.6423 19.4939C65.3312 19.2253 65.7924 18.84 66.026 18.3379H68.8634C68.6182 19.5406 67.8709 20.463 66.6215 21.1053C65.3721 21.7475 63.7665 22.0686 61.8049 22.0686ZM66.0785 15.8507C65.7749 14.4846 64.3854 13.8015 61.9099 13.8015C60.5905 13.8015 59.5863 13.9766 58.8974 14.3269C58.2201 14.6656 57.8114 15.1735 57.6713 15.8507H66.0785ZM77.6644 22.0686C75.3525 22.0686 73.5659 21.619 72.3048 20.7199C71.0438 19.8208 70.4132 18.5247 70.4132 16.8316C70.4132 15.1034 71.0379 13.7956 72.2873 12.9082C73.5484 12.0091 75.3408 11.5596 77.6644 11.5596C79.813 11.5596 81.4827 11.9274 82.6737 12.663C83.8764 13.387 84.5771 14.432 84.7756 15.7982H81.9031C81.7396 15.226 81.3193 14.7648 80.642 14.4145C79.9764 14.0525 78.9839 13.8715 77.6644 13.8715C76.1815 13.8715 75.0781 14.1168 74.3541 14.6072C73.6418 15.0976 73.2857 15.8332 73.2857 16.8141C73.2857 18.7874 74.7453 19.7741 77.6644 19.7741C78.9839 19.7741 79.9823 19.6048 80.6595 19.2662C81.3368 18.9159 81.7571 18.4488 81.9206 17.865L84.7756 17.8825C84.5771 19.237 83.8823 20.2762 82.6913 21.0002C81.5002 21.7124 79.8246 22.0686 77.6644 22.0686ZM93.6996 11.5596C95.1358 11.5596 96.2043 11.8398 96.9049 12.4003C97.6171 12.9491 97.9733 13.8073 97.9733 14.975H95.1358C95.1358 14.5079 94.914 14.1868 94.4703 14.0117C94.0266 13.8365 93.5011 13.7489 92.8939 13.7489C92.0182 13.7489 91.265 13.9299 90.6345 14.2919C90.0039 14.6422 89.4785 15.2202 89.0581 16.0259V21.8934H86.2207V11.7347H89.0581V13.241C89.7237 12.6688 90.436 12.2485 91.195 11.9799C91.9539 11.6997 92.7888 11.5596 93.6996 11.5596ZM113.579 21.8934H110.724V20.1419C110.024 20.7491 109.165 21.222 108.15 21.5606C107.134 21.8993 106.007 22.0686 104.769 22.0686C103.029 22.0686 101.692 21.6716 100.758 20.8776C99.8357 20.0835 99.3686 18.8049 99.357 17.0418L99.392 11.7347H102.229V16.5689C102.229 17.6898 102.492 18.5247 103.018 19.0735C103.555 19.6106 104.378 19.8792 105.487 19.8792C106.211 19.8792 106.935 19.7624 107.659 19.5289C108.395 19.2954 109.037 18.9743 109.586 18.5656C110.146 18.1452 110.526 17.6781 110.724 17.1644V11.7347H113.579V21.8934ZM116.701 10.9991C116.152 10.9991 115.732 10.9173 115.44 10.7539C115.148 10.5787 115.002 10.2226 115.002 9.68545C115.002 9.13664 115.148 8.7805 115.44 8.61703C115.732 8.44188 116.152 8.3543 116.701 8.3543C117.238 8.3543 117.647 8.44188 117.927 8.61703C118.219 8.7805 118.365 9.13664 118.365 9.68545C118.365 10.2226 118.219 10.5787 117.927 10.7539C117.647 10.9173 117.238 10.9991 116.701 10.9991ZM118.102 11.7347V21.8934H115.265V11.7347H118.102ZM126.348 21.9985C125.39 21.9985 124.631 21.8934 124.071 21.6833C123.522 21.4614 123.107 21.0644 122.827 20.4922C122.558 19.9201 122.424 19.1027 122.424 18.0401V13.8891H119.674V11.7172H122.424V9.6329H125.262V11.7172H130.464V13.8891H125.262V16.9542C125.262 17.7482 125.308 18.3262 125.402 18.6882C125.507 19.0502 125.705 19.3012 125.997 19.4413C126.301 19.5814 126.785 19.6515 127.451 19.6515H130.464V21.9985H126.348ZM145.292 15.2552C145.993 15.4888 146.512 15.8566 146.851 16.3587C147.201 16.8608 147.376 17.538 147.376 18.3904C147.376 19.5231 147.055 20.393 146.413 21.0002C145.782 21.5957 144.743 21.8934 143.295 21.8934H132.488V9.61539H142.56C143.972 9.61539 144.983 9.90147 145.59 10.4736C146.197 11.0458 146.5 11.834 146.5 12.8382C146.5 13.9708 146.098 14.7765 145.292 15.2552ZM142.104 14.6422C142.63 14.6422 143.044 14.5546 143.348 14.3795C143.663 14.1927 143.821 13.8248 143.821 13.276C143.821 12.7389 143.663 12.3828 143.348 12.2076C143.044 12.0325 142.63 11.9449 142.104 11.9449H135.221V14.6422H142.104ZM143.05 19.5814C143.587 19.5814 144.013 19.488 144.329 19.3012C144.644 19.1144 144.802 18.7407 144.802 18.1802C144.802 17.6198 144.644 17.2461 144.329 17.0593C144.013 16.8725 143.587 16.779 143.05 16.779H135.221V19.5814H143.05ZM162.993 14.1693C162.993 15.1852 162.765 16.0259 162.31 16.6915C161.854 17.357 161.259 17.865 160.523 18.2153L162.923 21.8934H159.63L157.686 18.7232H151.556V21.8934H148.823V9.61539H158.106C158.9 9.61539 159.665 9.76719 160.401 10.0708C161.148 10.3627 161.767 10.8531 162.257 11.542C162.748 12.2193 162.993 13.095 162.993 14.1693ZM157.336 16.2711C157.919 16.2711 158.41 16.2361 158.807 16.166C159.204 16.096 159.542 15.9091 159.823 15.6055C160.115 15.2903 160.261 14.8115 160.261 14.1693C160.261 13.5388 160.115 13.0717 159.823 12.7681C159.531 12.4645 159.181 12.2718 158.772 12.1901C158.375 12.1084 157.896 12.0675 157.336 12.0675H151.556V16.2711H157.336ZM202.045 21.8934H198.28L189.032 12.5754V21.8934H186.299V9.61539H190.1L199.313 18.8808V9.61539H202.045V21.8934Z" fill="black"/>
<path d="M167.847 19.3012L166.463 21.8934H163.24L169.844 9.61539H173.714L180.318 21.8934H177.095L175.711 19.3012H167.847ZM171.893 12.1901H171.648L169.143 16.8841H174.415L171.893 12.1901ZM184.534 9.61539V21.8934H181.802V9.61539H184.534Z" fill="#F02121"/>
</svg>
